<svg width="64" height="55" viewBox="0 0 64 55" fill="none" xmlns="http://www.w3.org/2000/svg">
<g clip-path="url(#clip0_1499_6289)">
<path d="M43.4314 50.8175H58.2297C59.4174 50.8175 60.2419 50.0246 60.6404 48.9821C65.1561 37.1694 64.157 23.606 58.2066 12.4817C57.7958 11.7137 56.9028 11.2435 56.048 11.2435C40.016 11.2435 23.9839 11.2435 7.95194 11.2435C7.09709 11.2435 6.20409 11.7137 5.79326 12.4817C-0.157052 23.606 -1.15617 37.1694 3.35952 48.9821C3.75827 50.0252 4.59373 50.8175 5.77022 50.8175H22.5601C25.7774 50.8175 25.7827 45.8175 22.5601 45.8175H5.77022L8.18092 47.6529C4.13468 37.0683 4.75145 25.0244 10.1106 15.0053L7.95195 16.2435C23.984 16.2435 40.016 16.2435 56.048 16.2435L53.8893 15.0053C59.2485 25.0244 59.8652 37.0684 55.819 47.6529L58.2297 45.8175H43.4314C40.2141 45.8175 40.2088 50.8175 43.4314 50.8175Z" fill="white"/>
<path d="M33.978 54.7932C40.1716 54.8602 46.0288 50.4948 47.6332 44.4832C49.222 38.5307 46.6628 32.034 41.6491 28.5553C36.5858 25.0423 29.228 25.0793 24.1957 28.6203C18.9115 32.3386 16.1413 39.0835 18.3188 45.3575C20.5782 51.8675 27.8585 56.0045 34.6426 54.7039C35.9694 54.4495 36.7261 52.8562 36.3887 51.6286C36.0071 50.2401 34.644 49.6274 33.3134 49.8825C29.6863 50.5778 25.1016 48.1722 23.4672 44.8052C21.6076 40.9741 22.783 36.5193 25.8195 33.688C28.9062 30.81 33.7278 30.1062 37.5335 31.9394C41.262 33.7354 43.5061 37.7921 43.0553 41.9185C42.5653 46.4022 38.4174 49.8412 33.978 49.7932C30.7596 49.7583 30.7573 54.7583 33.978 54.7932Z" fill="white"/>
<path d="M47.7552 41.7148C51.1745 33.8832 49.1426 24.004 41.2445 19.7822C33.2585 15.5134 23.0889 18.0015 18.2068 25.6959C15.244 30.3652 15.141 36.2101 17.4568 41.1491C18.03 42.3715 19.7872 42.6835 20.8773 42.0459C22.1299 41.3133 22.3495 39.8525 21.7742 38.6255C18.905 32.5065 22.6538 25.3162 28.8771 23.2752C34.4082 21.4611 41.6234 23.7649 43.6468 29.5999C44.698 32.6313 44.7364 36.217 43.4378 39.1912C42.898 40.4276 43.074 41.8743 44.3347 42.6117C45.3938 43.2311 47.2121 42.9587 47.7552 41.7148Z" fill="white"/>
<path d="M14.0718 13.061C13.8504 12.4514 13.6406 11.8434 13.5479 11.1991L13.6372 11.8637C13.6064 11.573 13.6021 11.2913 13.6316 11.0001L13.5423 11.6647C13.5629 11.5256 13.6028 11.3899 13.6239 11.2518C13.7059 11.0021 13.6699 11.0708 13.5159 11.4578L13.5787 11.3343C13.8808 10.9541 13.137 11.6965 13.5144 11.3966C13.9031 11.0876 12.9945 11.7 13.425 11.4489C13.5434 11.3799 13.6589 11.3148 13.7802 11.2511C14.2193 11.0208 13.216 11.4455 13.692 11.2953C13.974 11.2063 14.255 11.1171 14.5399 11.0376C15.8356 10.6761 17.1545 10.4075 18.4864 10.2209L17.8218 10.3102C18.4328 10.2281 19.0451 10.1634 19.6598 10.1159L17.1598 7.61591C17.2879 9.55427 17.416 11.4926 17.5441 13.431C17.6302 14.7332 18.6324 15.9942 20.0441 15.931C21.3248 15.8736 22.6365 14.8285 22.5441 13.431C22.416 11.4926 22.2879 9.55427 22.1598 7.61591C22.076 6.34799 21.0801 5.00629 19.6598 5.11591C18.2658 5.22349 16.872 5.4069 15.4996 5.67478C14.3625 5.89675 13.1845 6.14291 12.1047 6.57105C10.5127 7.20226 9.16219 8.30415 8.76864 10.0584C8.43411 11.5496 8.73929 12.983 9.25045 14.3901C9.47641 15.0122 9.81255 15.5408 10.3993 15.8842C10.9352 16.1978 11.725 16.3307 12.3257 16.1362C13.5306 15.7463 14.5499 14.377 14.0718 13.061Z" fill="white"/>
<path d="M55.1814 11.2435C52.2012 10.8548 49.338 9.05752 47.6199 6.6121C46.4927 5.00767 45.5341 3.3561 43.9207 2.17879C42.5152 1.15322 40.8337 0.626596 39.128 0.380196C35.5215 -0.140764 31.1493 -0.277644 27.6853 0.961196C25.9085 1.59665 24.2918 2.58969 23.1049 4.07296C22.505 4.82267 22.0783 5.6441 21.6213 6.48169C21.2911 7.08697 21.0258 7.74835 20.3175 7.91618C17.1878 8.65777 18.5128 13.4802 21.6467 12.7376C23.6488 12.2632 24.9884 10.7473 25.9387 9.0053C26.7218 7.56971 27.3687 6.45789 28.9465 5.80758C30.5514 5.1461 32.349 5.12782 34.0548 5.11814C35.6657 5.109 37.3525 5.04158 38.9337 5.39706C40.3871 5.72379 41.3937 6.3487 42.2609 7.5731C43.2815 9.01402 44.184 10.5027 45.4676 11.7378C48.1569 14.3254 51.515 15.7653 55.1814 16.2435C56.5226 16.4185 57.6814 14.9693 57.6814 13.7435C57.6814 12.2473 56.5266 11.419 55.1814 11.2435Z" fill="white"/>
</g>
<defs>
<clipPath id="clip0_1499_6289">
<rect width="62.9071" height="54.9427" fill="white" transform="translate(0.546387)"/>
</clipPath>
</defs>
</svg>
