<svg width="57" height="57" viewBox="0 0 57 57" fill="none" xmlns="http://www.w3.org/2000/svg">
<g clip-path="url(#clip0_1499_6332)">
<path d="M25.5141 46.2293C19.6811 49.4336 13.4149 51.5449 6.69216 51.2187L8.45993 55.4865C12.3921 51.9556 15.2197 47.8762 17.0325 42.9087C17.5201 41.5727 16.4732 40.2582 15.2864 39.8334C8.54829 37.4215 4.62698 29.3704 5.86782 22.4924C7.30443 14.5292 13.8257 8.23819 21.4471 5.98913C30.0262 3.45741 39.4986 5.66575 45.6186 12.2926C51.2052 18.3419 52.9491 27.1519 49.6708 34.7753C47.8159 39.089 44.5215 42.5249 40.3038 44.5704C36.1975 46.5619 31.8556 46.7083 27.4405 45.9773C26.11 45.757 24.7492 46.3256 24.3652 47.7234C24.0365 48.9196 24.7717 50.5769 26.1113 50.7987C28.4343 51.1833 30.7039 51.5592 33.0703 51.4274C35.7099 51.2803 38.3346 50.7468 40.7942 49.7731C45.6496 47.851 49.7373 44.5325 52.506 40.0883C57.9175 31.4019 57.4838 19.99 51.5285 11.6953C45.0856 2.72135 34.2585 -1.37524 23.4254 0.40995C13.6025 2.02867 4.67983 9.10026 1.65389 18.7057C-1.57792 28.9646 3.65753 40.968 13.9572 44.6548L12.2111 41.5795C10.6952 45.7336 8.19644 49.0128 4.92439 51.951C3.22224 53.4794 4.65342 56.1198 6.69216 56.2187C14.2701 56.5864 21.467 54.1562 28.0377 50.5467C30.8587 48.997 28.3388 44.6776 25.5141 46.2293Z" fill="white"/>
<path d="M18.1622 22.2869L19.2166 19.4656L15.0381 20.5688C17.2062 22.8539 19.6623 25.294 22.8427 26.0289C25.9042 26.7363 29.3101 25.9811 31.2523 23.3808C31.3979 23.1859 32.0941 22.1629 32.1005 22.1687L31.0345 22.434C30.6997 22.2117 30.6965 22.2437 31.025 22.5298C31.1247 22.7106 31.3018 22.9373 31.4226 23.1057C32.4723 24.5692 33.83 25.6432 35.7154 25.6456C39.4697 25.6505 41.2766 22.2772 42.2139 19.1493C43.1396 16.0604 38.3154 14.7405 37.3925 17.8201C37.1427 18.6538 36.8926 20.0235 36.0895 20.5317C35.6293 20.8229 35.6838 20.482 35.3609 20.0299C34.5175 18.8491 33.5208 17.8621 32.0504 17.561C30.3905 17.2211 28.9435 18.0542 27.9773 19.351C27.4431 20.068 27.1757 20.7587 26.3534 21.0938C25.799 21.3199 24.9755 21.3543 24.332 21.2405C21.951 20.8195 20.1489 18.6935 18.5737 17.0332C17.1821 15.5665 15.0228 16.457 14.3952 18.1364L13.3408 20.9577C12.8681 22.2226 13.8675 23.6979 15.0869 24.033C16.4875 24.4178 17.6878 23.5564 18.1622 22.2869Z" fill="white"/>
<path d="M22.6117 30.571C23.0666 31.2268 22.7742 32.3672 22.1028 32.7553C21.684 32.9974 21.1535 32.9944 20.7274 32.7757C21.1793 33.0077 20.5042 32.4625 20.8451 32.8659C20.9399 32.9632 21.0304 33.0643 21.1167 33.1692C20.9563 32.9561 20.9276 32.9175 21.0306 33.0533C21.2657 33.1465 21.509 33.6869 21.7081 33.9234C21.8275 34.0652 21.9517 34.2017 22.0865 34.3291C22.5996 34.8141 23.2558 35.2504 23.9431 35.4368C25.8895 35.9644 27.5038 34.9979 28.85 33.6867C29.0663 33.4759 29.2782 33.2602 29.5023 33.0575C29.5524 33.0114 29.6032 32.9662 29.6549 32.9218C29.8546 32.756 29.7894 32.8037 29.4591 33.0648C29.4504 33.0501 29.7643 32.8702 29.7782 32.8585C30.109 32.5772 29.2356 33.0297 29.6252 32.9228C29.8813 32.8644 29.7767 32.8748 29.3116 32.9538C29.5723 32.9576 29.4739 32.9368 29.0164 32.8914L29.1827 32.9337C28.9731 32.885 28.7979 32.7794 28.6571 32.617C28.7227 32.6715 28.7839 32.7303 28.841 32.7934C28.9637 32.9277 28.9256 32.8714 28.7265 32.6244C28.9858 32.7868 29.2082 33.4516 29.3435 33.7159C29.509 34.0392 29.6919 34.344 29.9064 34.6375C30.7964 35.8554 31.9354 36.6277 33.4835 36.693C34.7918 36.7482 36.0422 35.5036 35.9835 34.193C35.9208 32.7913 34.8851 31.7521 33.4835 31.693C33.7087 31.6978 33.9146 31.7628 34.1014 31.8879C33.8741 31.751 33.9044 31.7868 34.1924 31.9952C34.1051 31.9175 34.0232 31.8344 33.9467 31.746C34.1484 32.0201 34.1707 32.0442 34.0136 31.8184C33.781 31.4013 33.5674 30.9721 33.3308 30.5572C32.6651 29.3898 31.6811 28.4091 30.3456 28.07C28.1562 27.5141 26.57 28.9688 25.1137 30.3449C24.9883 30.4634 24.8139 30.575 24.7069 30.7084C25.0422 30.4574 25.1066 30.4058 24.8999 30.5539C24.8305 30.6012 24.7591 30.6455 24.6859 30.6868C24.3732 30.9485 25.2506 30.5133 24.8385 30.6243C24.5826 30.6835 24.687 30.6737 25.1518 30.595C24.891 30.5922 24.9893 30.6136 25.4467 30.6593C25.1794 30.5838 25.2126 30.6056 25.5462 30.7248C25.3196 30.5771 25.3449 30.6 25.622 30.7936C25.521 30.7957 25.1771 30.3298 25.1263 30.2431C25.333 30.5097 25.3477 30.5279 25.1703 30.2977L24.7794 29.7918C24.6101 29.5794 24.4346 29.3759 24.2355 29.1905C22.9594 28.0024 21.1539 27.5545 19.5792 28.4379C18.0157 29.3151 17.22 31.5461 18.2943 33.0946C19.0382 34.1668 20.5192 34.7623 21.7148 33.9915C22.7807 33.3043 23.4089 31.7201 22.6117 30.571Z" fill="white"/>
</g>
<defs>
<clipPath id="clip0_1499_6332">
<rect width="55.5926" height="56.2554" fill="white" transform="translate(0.703613)"/>
</clipPath>
</defs>
</svg>
