<svg width="871" height="162" viewBox="0 0 871 162" fill="none" xmlns="http://www.w3.org/2000/svg">
<path d="M293.324 327.527C123.703 310.153 118.368 643.347 217.403 758.407C342.52 902.695 633.255 687.532 755.281 743.638C806.344 767.115 761.259 573.16 735.822 398.484C710.525 224.792 684.711 87.4162 610.847 176.921C560.929 237.361 509.504 349.681 293.324 327.527Z" stroke="#FFDF82" stroke-width="0.924891" stroke-miterlimit="10"/>
<path d="M277.571 321.479C99.4291 301.189 95.6629 651.973 200.269 772.123C332.73 923.323 634.654 692.473 763.851 754.222C817.598 779.872 778.57 575.077 749.931 391.072C721.528 208.471 686.424 61.172 607.694 158.696C554.308 224.887 505.034 347.372 277.571 321.479Z" stroke="#FFDF82" stroke-width="0.924891" stroke-miterlimit="10"/>
<path d="M261.815 315.418C75.074 292.225 72.9398 660.613 183.18 785.88C322.985 943.83 636.129 697.576 772.466 764.847C828.959 792.697 796.303 577.007 764.086 383.755C732.936 192.216 688.181 35.0223 604.587 140.592C547.686 212.426 500.545 345.077 261.815 315.418Z" stroke="#FFDF82" stroke-width="0.924891" stroke-miterlimit="10"/>
<path d="M246.061 309.357C50.7989 283.558 50.2183 669.254 166.092 799.623C313.241 964.512 637.637 702.599 781.098 775.458C840.212 805.482 813.581 578.952 778.257 376.398C743.906 175.963 689.94 8.84643 601.465 122.422C541.065 199.966 495.996 343.161 246.061 309.357Z" stroke="#FFDF82" stroke-width="0.924891" stroke-miterlimit="10"/>
<path d="M230.303 303.308C26.52 274.526 27.5244 677.88 149 813.366C303.477 985.113 639.156 707.607 789.71 786.069C851.523 818.28 830.872 580.869 792.409 369.04C754.873 159.709 691.711 -17.344 598.356 104.264C534.393 187.573 491.521 340.784 230.303 303.308Z" stroke="#FFDF82" stroke-width="0.924891" stroke-miterlimit="10"/>
<path d="M214.548 297.247C2.24342 265.495 4.78561 686.52 131.911 827.095C293.732 1005.67 640.71 712.629 798.325 796.666C862.853 831.078 848.243 582.853 806.564 361.723C765.763 143.495 693.217 -43.6284 595.248 86.1337C527.629 174.95 487.048 338.395 214.548 297.247Z" stroke="#FFDF82" stroke-width="0.924891" stroke-miterlimit="10"/>
<path d="M198.794 291.185C-22.0308 256.423 -17.9821 695.173 114.824 840.838C283.989 1026.31 642.265 717.651 806.943 807.223C874.201 843.835 865.46 584.743 820.736 354.271C776.813 127.187 695.118 -69.7647 592.143 67.922C521.103 162.557 482.609 336.073 198.794 291.185Z" stroke="#FFDF82" stroke-width="0.924891" stroke-miterlimit="10"/>
<path d="M589.019 49.7645C514.574 150.151 478.089 333.629 183.038 285.137C-46.3239 247.432 -40.6588 703.786 97.7179 854.581C274.243 1046.93 643.818 722.673 815.557 817.875C954.436 894.879 806.722 -243.82 589.019 49.7645Z" stroke="#FFDF82" stroke-width="0.924891" stroke-miterlimit="10"/>
</svg>
