<svg width="25" height="24" viewBox="0 0 25 24" fill="none" xmlns="http://www.w3.org/2000/svg">
<path d="M15.5 19.128C16.353 19.3757 17.2368 19.5009 18.125 19.5C19.5534 19.5021 20.9633 19.1764 22.246 18.548C22.2839 17.6517 22.0286 16.7675 21.5188 16.0293C21.009 15.2912 20.2724 14.7394 19.4207 14.4575C18.5691 14.1757 17.6487 14.1791 16.7992 14.4674C15.9497 14.7557 15.2173 15.313 14.713 16.055M15.5 19.128V19.125C15.5 18.012 15.214 16.965 14.713 16.055M15.5 19.128V19.234C13.5755 20.3931 11.3706 21.0038 9.12402 21C6.79302 21 4.61202 20.355 2.75002 19.234L2.74902 19.125C2.74826 17.7095 3.21864 16.3339 4.08601 15.2153C4.95338 14.0966 6.1684 13.2984 7.53951 12.9466C8.91063 12.5948 10.3598 12.7093 11.6587 13.2721C12.9575 13.8349 14.0321 14.814 14.713 16.055M12.5 6.375C12.5 7.27011 12.1444 8.12855 11.5115 8.76149C10.8786 9.39442 10.0201 9.75 9.12502 9.75C8.22992 9.75 7.37147 9.39442 6.73854 8.76149C6.1056 8.12855 5.75002 7.27011 5.75002 6.375C5.75002 5.47989 6.1056 4.62145 6.73854 3.98851C7.37147 3.35558 8.22992 3 9.12502 3C10.0201 3 10.8786 3.35558 11.5115 3.98851C12.1444 4.62145 12.5 5.47989 12.5 6.375ZM20.75 8.625C20.75 9.32119 20.4735 9.98887 19.9812 10.4812C19.4889 10.9734 18.8212 11.25 18.125 11.25C17.4288 11.25 16.7612 10.9734 16.2689 10.4812C15.7766 9.98887 15.5 9.32119 15.5 8.625C15.5 7.92881 15.7766 7.26113 16.2689 6.76884C16.7612 6.27656 17.4288 6 18.125 6C18.8212 6 19.4889 6.27656 19.9812 6.76884C20.4735 7.26113 20.75 7.92881 20.75 8.625Z" stroke="white" stroke-width="1.5" stroke-linecap="round" stroke-linejoin="round"/>
</svg>
